<svg width="200" height="82" viewBox="0 0 200 82" fill="none" xmlns="http://www.w3.org/2000/svg">
<g clip-path="url(#clip0)">
<path d="M25.2319 28.5128V9.69379C25.2319 7.02118 23.8441 5.16394 20.7065 5.16394H18.6952V17.7166C17.6593 15.3913 14.7379 13.5089 12.0679 13.5089C4.25393 13.5089 0 19.2014 0 27.9692C0 35.2975 5.39032 41.4379 12.4199 41.4379C21.5713 41.4379 25.2319 36.289 25.2319 28.5128ZM18.5544 28.2158C18.5544 33.0678 16.9202 35.8411 13.2093 35.8411C9.39786 35.8411 6.53677 32.2122 6.53677 26.6757C6.53677 22.3673 8.71402 19.1259 12.0679 19.1259C15.6279 19.1259 18.5493 21.5519 18.5493 28.236" fill="#253D61"/>
<path d="M27.5246 27.9693C27.5246 35.051 32.1254 41.438 40.1405 41.438C48.7741 41.438 53.3498 35.051 53.3498 27.0281C53.3498 19.9464 48.7741 13.509 40.7288 13.509C32.1204 13.509 27.5195 19.9464 27.5195 27.9693H27.5246ZM46.4661 27.9693C46.4661 32.323 44.5855 35.4939 40.7288 35.4939C36.3241 35.4939 34.3932 32.323 34.3932 27.0281C34.3932 22.6191 36.3241 19.4482 40.1355 19.4482C44.485 19.4482 46.4661 22.6191 46.4661 27.9693Z" fill="#253D61"/>
<path d="M79.0896 28.8601V18.8542C79.0896 15.7387 77.4605 14.1029 73.5987 14.1029H72.407V29.1068C72.407 33.6366 70.4762 35.5442 67.7559 35.5442C64.7389 35.5442 62.3655 33.5611 62.3655 28.6588V18.8542C62.3655 15.7387 60.6811 14.1029 56.8747 14.1029H55.6377V29.3031C55.6377 37.0793 60.8319 41.438 67.4089 41.438C75.1776 41.438 79.0846 37.18 79.0846 28.8551" fill="#253D61"/>
<path d="M116.701 26.9273C116.701 19.0554 111.507 13.5089 104.729 13.5089C101.114 13.5089 98.8408 15.6379 97.5033 17.5707V9.79443C97.5033 6.67387 95.7232 5.18909 93.1488 5.18909H90.876V27.8383C90.876 35.8612 96.6133 41.4581 103.447 41.4581C111.557 41.4581 116.706 34.9703 116.706 26.9474L116.701 26.9273ZM109.828 28.0849C109.828 32.3933 107.454 35.5642 104.141 35.5642C100.178 35.5642 97.5586 33.0476 97.5586 26.8971C97.5586 22.7397 100.073 19.4229 103.447 19.4229C107.505 19.4229 109.828 21.6022 109.828 28.0849Z" fill="#253D61"/>
<path d="M107.821 26.9273C107.821 19.0554 102.627 13.5089 95.849 13.5089C92.2387 13.5089 89.9609 15.6379 88.6284 17.5707V9.79443C88.6284 6.67387 86.8484 5.18909 84.2739 5.18909H81.9961V27.8383C81.9961 35.8612 87.7384 41.4581 94.5668 41.4581C102.677 41.4581 107.821 34.9703 107.821 26.9474V26.9273ZM100.948 28.0849C100.948 32.3933 98.5693 35.5642 95.2557 35.5642C91.2984 35.5642 88.6787 33.0476 88.6787 26.8971C88.6787 22.7397 91.1928 19.4229 94.5668 19.4229C98.6196 19.4229 100.948 21.6022 100.948 28.0849Z" fill="white"/>
<path d="M131.611 37.0792V35.6447H129.826C126.713 35.6447 125.326 34.7992 125.326 32.1215V9.64847C125.326 7.13189 123.892 5.18909 120.579 5.18909H118.698V32.7708C118.698 38.1664 121.665 41.0906 127.156 41.0906C130.077 41.0906 131.611 39.9531 131.611 37.0641" fill="#253D61"/>
<path d="M154.785 23.8572C154.785 17.4701 149.641 13.509 144.1 13.509C136.477 13.509 131.027 19.1059 131.027 28.0196C130.994 29.7658 131.309 31.501 131.952 33.1244C132.596 34.7477 133.555 36.2267 134.775 37.4754C135.995 38.7241 137.451 39.7175 139.058 40.3978C140.665 41.0781 142.391 41.4317 144.135 41.438C151.462 41.438 153.785 38.8107 153.785 35.3983V33.3145H153.538C151.411 35.2976 148.143 35.8311 145.372 35.8311C141.465 35.8311 138.398 33.7021 137.905 30.3349H142.26C151.064 30.3349 154.775 28.7494 154.775 23.8471L154.785 23.8572ZM148.54 23.0569C148.54 24.9393 147.107 25.6289 140.822 25.6289H137.855L137.905 24.738C138.051 21.6678 140.279 19.0455 143.497 19.0455C146.559 19.0455 148.525 20.3793 148.525 23.072" fill="#253D61"/>
<path d="M196.998 17.5858L173.365 1.23811C172.321 0.51375 171.099 0.0893417 169.831 0.0109342C168.564 -0.0674733 167.299 0.203115 166.174 0.793339C165.049 1.38356 164.107 2.27088 163.45 3.35902C162.793 4.44715 162.447 5.69454 162.448 6.96585V39.6814C162.452 40.5979 162.637 41.5047 162.991 42.3499C163.345 43.195 163.862 43.9621 164.513 44.6071C165.163 45.2521 165.934 45.7626 166.782 46.1092C167.629 46.4558 168.537 46.6318 169.453 46.6272C170.866 46.629 172.245 46.1968 173.405 45.389L197.038 29.0413C197.964 28.4011 198.721 27.5454 199.244 26.5477C199.767 25.55 200.04 24.4402 200.04 23.3136C200.04 22.1869 199.767 21.0771 199.244 20.0794C198.721 19.0817 197.964 18.226 197.038 17.5858H196.998ZM179.047 34.613L170.177 40.7686C169.978 40.9064 169.746 40.9873 169.505 41.0024C169.264 41.0175 169.024 40.9662 168.81 40.8542C168.596 40.7422 168.416 40.5737 168.291 40.3669C168.166 40.1602 168.1 39.9231 168.1 39.6814V27.3803C168.101 27.1389 168.167 26.9023 168.293 26.6959C168.418 26.4895 168.597 26.3211 168.81 26.2088C169.024 26.0965 169.264 26.0445 169.504 26.0585C169.745 26.0725 169.978 26.1519 170.177 26.2882L179.047 32.4336C179.223 32.5554 179.367 32.7181 179.467 32.9079C179.566 33.0978 179.618 33.3089 179.618 33.5233C179.618 33.7377 179.566 33.9489 179.467 34.1387C179.367 34.3285 179.223 34.4913 179.047 34.613ZM193.795 24.4007L186.292 29.5949C186.071 29.7495 185.808 29.8324 185.538 29.8324C185.268 29.8324 185.005 29.7495 184.784 29.5949L168.693 18.4415C168.517 18.3202 168.373 18.1579 168.273 17.9685C168.173 17.7792 168.121 17.5684 168.12 17.3543V6.96585C168.121 6.72442 168.188 6.48779 168.313 6.28138C168.438 6.07496 168.617 5.90656 168.83 5.79427C169.044 5.68197 169.284 5.63003 169.525 5.64402C169.765 5.658 169.998 5.73739 170.197 5.87365L193.83 22.2214C194.003 22.3466 194.144 22.5119 194.24 22.7033C194.335 22.8946 194.384 23.1062 194.38 23.3202C194.377 23.5342 194.322 23.7442 194.22 23.9323C194.118 24.1204 193.972 24.2811 193.795 24.4007Z" fill="white"/>
<path d="M92.9029 50.1554C92.1044 50.1539 91.3095 50.2606 90.5396 50.4725C89.4499 50.8152 88.382 51.2236 87.3416 51.6956L81.7451 54.1668L82.1071 56.1801C82.3736 57.9115 83.6156 58.8678 85.5515 58.8678C86.3427 58.8415 87.1241 58.6851 87.8645 58.4048L89.539 57.7958V75.2457C89.5683 75.944 89.7394 76.629 90.0418 77.259C90.4003 78.0955 91.0535 78.7708 91.8771 79.1565C92.4374 79.4478 93.0522 79.6192 93.6823 79.6598C94.4682 79.6585 95.2215 79.345 95.7768 78.7883C96.3321 78.2315 96.6439 77.477 96.6439 76.6902V53.9403C96.6436 52.9793 96.2746 52.055 95.6131 51.3583C95.2728 50.9805 94.8548 50.681 94.3878 50.4803C93.9208 50.2796 93.4159 50.1825 92.9079 50.1957" fill="white"/>
<path d="M120.126 53.7188C119.227 52.4283 118.021 51.3836 116.615 50.6802C115.21 49.9768 113.651 49.6372 112.08 49.6923C108.4 49.6923 105.483 51.0613 103.412 53.7541C101.34 56.4468 100.359 60.2972 100.359 65.4109C100.359 70.0263 101.365 73.6602 103.376 76.207C104.376 77.4428 105.642 78.4369 107.079 79.1151C108.516 79.7934 110.087 80.1383 111.675 80.1243C113.264 80.1103 114.829 79.7376 116.254 79.0341C117.679 78.3306 118.926 77.3143 119.904 76.061C121.916 73.4186 122.921 69.4676 122.921 64.3136C122.921 59.8996 121.981 56.3361 120.116 53.744L120.126 53.7188ZM114.755 71.8936C114.061 73.1317 113.182 73.7307 112.06 73.7307C111.356 73.7709 110.654 73.6096 110.038 73.2656C109.422 72.9215 108.917 72.409 108.581 71.7879C107.756 70.3635 107.339 67.8369 107.339 64.2834C107.339 61.4045 107.766 59.2503 108.606 57.9366C109.39 56.6985 110.366 56.0945 111.623 56.0945C112.281 56.064 112.932 56.23 113.496 56.5715C114.059 56.913 114.508 57.4145 114.786 58.0121C115.54 59.4415 115.922 61.9883 115.922 65.5619C115.922 68.3905 115.535 70.5145 114.775 71.8735" fill="white"/>
<path d="M90.3882 51.162C89.5898 51.1605 88.7948 51.2672 88.0249 51.4791C86.9353 51.8218 85.8673 52.2302 84.8269 52.7021L79.2305 55.1734L79.5925 57.1867C79.859 58.9181 81.101 59.8744 83.0369 59.8744C83.828 59.8481 84.6095 59.6917 85.3499 59.4114L87.0243 58.8023V76.2523C87.0537 76.9506 87.2248 77.6356 87.5271 78.2656C87.8856 79.102 88.5388 79.7774 89.3625 80.1631C89.9228 80.4544 90.5375 80.6258 91.1676 80.6664C91.9536 80.6651 92.7069 80.3516 93.2621 79.7948C93.8174 79.2381 94.1293 78.4835 94.1293 77.6968V54.9469C94.129 53.9858 93.76 53.0616 93.0985 52.3649C92.7581 51.9871 92.3401 51.6876 91.8731 51.4869C91.4062 51.2862 90.9013 51.1891 90.3933 51.2023" fill="#253D61"/>
<path d="M117.612 54.7256C116.714 53.435 115.507 52.3903 114.101 51.6869C112.696 50.9835 111.137 50.6439 109.567 50.699C105.886 50.699 102.97 52.068 100.898 54.7608C98.8262 57.4535 97.8457 61.3039 97.8457 66.4176C97.8457 71.033 98.8514 74.6669 100.863 77.2137C101.863 78.4495 103.128 79.4436 104.565 80.1218C106.002 80.8001 107.573 81.1451 109.162 81.131C110.75 81.117 112.315 80.7443 113.74 80.0408C115.165 79.3373 116.413 78.321 117.391 77.0678C119.402 74.4253 120.408 70.4743 120.408 65.3204C120.408 60.9063 119.467 57.3428 117.602 54.7507L117.612 54.7256ZM112.242 72.9003C111.548 74.1385 110.668 74.7374 109.547 74.7374C108.842 74.7777 108.141 74.6163 107.525 74.2723C106.908 73.9282 106.403 73.4157 106.067 72.7946C105.242 71.3702 104.825 68.8436 104.825 65.2902C104.825 62.4112 105.252 60.257 106.092 58.9433C106.877 57.7052 107.852 57.1012 109.109 57.1012C109.767 57.0707 110.419 57.2368 110.982 57.5782C111.545 57.9197 111.994 58.4212 112.272 59.0188C113.026 60.4483 113.408 62.995 113.408 66.5686C113.408 69.3972 113.021 71.5212 112.262 72.8802" fill="#253D61"/>
</g>
<defs>
<clipPath id="clip0">
<rect width="200" height="81.1245" fill="white"/>
</clipPath>
</defs>
</svg>
