<svg width="200" height="85" viewBox="0 0 200 85" fill="none" xmlns="http://www.w3.org/2000/svg">
<path d="M25.2268 28.8898V9.82371C25.2268 7.116 23.8393 5.23438 20.7023 5.23438H18.6914V17.9519C17.6557 15.5961 14.7349 13.6889 12.0654 13.6889C4.25306 13.6889 0 19.4562 0 28.3391C0 35.7636 5.38922 41.9847 12.4123 41.9847C21.5669 41.9847 25.2268 36.7682 25.2268 28.8898ZM18.5506 28.589C18.5506 33.5047 16.9167 36.3144 13.2066 36.3144C9.39595 36.3144 6.53544 32.6378 6.53544 27.0286C6.53544 22.6636 8.71224 19.3797 12.0654 19.3797C15.6247 19.3797 18.5456 21.8376 18.5456 28.6094" fill="#263D61"/>
<path d="M27.5187 28.3389C27.5187 35.5135 32.1186 41.9845 40.1321 41.9845C48.7639 41.9845 53.3387 35.5135 53.3387 27.3853C53.3387 20.2107 48.7639 13.6887 40.7203 13.6887C32.1136 13.6887 27.5137 20.2107 27.5137 28.3389H27.5187ZM46.4564 28.3389C46.4564 32.7497 44.5762 35.9623 40.7203 35.9623C36.3164 35.9623 34.3859 32.7497 34.3859 27.3853C34.3859 22.9184 36.3164 19.7058 40.1271 19.7058C44.4756 19.7058 46.4564 22.9184 46.4564 28.3389Z" fill="#263D61"/>
<path d="M79.0741 29.2416V19.1042C79.0741 15.9478 77.4402 14.2905 73.5843 14.2905H72.3929V29.4914C72.3929 34.0807 70.4624 36.0134 67.7427 36.0134C64.7263 36.0134 62.3534 34.0043 62.3534 29.0376V19.1042C62.3534 15.9478 60.6693 14.2905 56.8637 14.2905H55.627V29.6903C55.627 37.5686 60.8201 41.9846 67.3958 41.9846C75.1629 41.9846 79.0691 37.6706 79.0691 29.2365" fill="#263D61"/>
<path d="M116.677 27.2835C116.677 19.3082 111.484 13.6888 104.708 13.6888C101.093 13.6888 98.8206 15.8458 97.4834 17.8039V9.92559C97.4834 6.76405 95.7037 5.25977 93.1297 5.25977H90.8574V28.2064C90.8574 36.3346 96.5935 42.005 103.426 42.005C111.535 42.005 116.682 35.4321 116.682 27.3039L116.677 27.2835ZM109.805 28.4563C109.805 32.8213 107.432 36.0338 104.119 36.0338C100.163 36.0338 97.5387 33.4842 97.5387 27.2529C97.5387 23.0409 100.052 19.6805 103.426 19.6805C107.483 19.6805 109.805 21.8833 109.805 28.4563Z" fill="#263D61"/>
<path d="M107.799 27.2835C107.799 19.3082 102.606 13.6888 95.8296 13.6888C92.22 13.6888 89.9427 15.8458 88.6104 17.8039V9.92559C88.6104 6.76405 86.8308 5.25977 84.2568 5.25977H81.9795V28.2064C81.9795 36.3346 87.7206 42.005 94.5476 42.005C102.662 42.005 107.805 35.4321 107.805 27.3039L107.799 27.2835ZM100.932 28.4563C100.932 32.8213 98.5544 36.0338 95.2414 36.0338C91.2849 36.0338 88.6657 33.4842 88.6657 27.2529C88.6657 23.0409 91.1794 19.6805 94.5476 19.6805C98.6046 19.6805 100.932 21.8833 100.932 28.4563Z" fill="white"/>
<path d="M131.584 37.5687V36.1154H129.799C126.687 36.1154 125.3 35.2587 125.3 32.5459V9.77261C125.3 7.22298 123.867 5.25977 120.554 5.25977H118.674V33.2037C118.674 38.6701 121.64 41.6328 127.13 41.6328C130.051 41.6328 131.584 40.4803 131.584 37.5534" fill="#263D61"/>
<path d="M154.754 24.1728C154.754 17.7018 149.611 13.6887 144.071 13.6887C136.45 13.6887 131 19.3591 131 28.3899C130.968 30.159 131.282 31.917 131.926 33.5616C132.569 35.2063 133.528 36.7048 134.748 37.9698C135.968 39.2349 137.423 40.2413 139.03 40.9306C140.636 41.6198 142.362 41.978 144.106 41.9845C151.431 41.9845 153.754 39.3227 153.754 35.8654V33.7543H153.507C151.381 35.7634 148.113 36.3039 145.343 36.3039C141.437 36.3039 138.37 34.1469 137.878 30.7355H142.231C151.034 30.7355 154.744 29.1293 154.744 24.1626L154.754 24.1728ZM148.51 23.362C148.51 25.264 147.078 25.9677 140.793 25.9677H137.827L137.878 25.0652C138.023 21.9546 140.251 19.2979 143.468 19.2979C146.53 19.2979 148.495 20.6492 148.495 23.3773" fill="#263D61"/>
<path d="M196.958 17.8191L173.33 1.25672C172.287 0.522847 171.065 0.0928647 169.798 0.0134276C168.53 -0.0660096 167.265 0.208132 166.141 0.806107C165.016 1.40408 164.074 2.30305 163.418 3.40548C162.761 4.5079 162.415 5.77168 162.416 7.05968V40.2049C162.42 41.1334 162.604 42.0521 162.958 42.9084C163.313 43.7646 163.83 44.5417 164.48 45.1953C165.13 45.8488 165.901 46.3659 166.749 46.717C167.596 47.0682 168.504 47.2465 169.419 47.2418C170.832 47.2437 172.211 46.8058 173.37 45.9874L196.999 29.425C197.925 28.7764 198.681 27.9094 199.204 26.8987C199.727 25.8879 200 24.7635 200 23.6221C200 22.4806 199.727 21.3562 199.204 20.3455C198.681 19.3347 197.925 18.4678 196.999 17.8191H196.958ZM179.011 35.0648L170.143 41.3063C169.945 41.446 169.712 41.5279 169.471 41.5432C169.23 41.5585 168.99 41.5066 168.776 41.3931C168.562 41.2796 168.383 41.1089 168.258 40.8994C168.133 40.6899 168.067 40.4497 168.067 40.2049V27.7423C168.068 27.4977 168.134 27.2579 168.259 27.0488C168.384 26.8397 168.563 26.6691 168.777 26.5553C168.99 26.4415 169.23 26.3889 169.471 26.4031C169.711 26.4172 169.944 26.4977 170.143 26.6357L179.011 32.8619C179.187 32.9847 179.331 33.1491 179.431 33.341C179.531 33.5329 179.583 33.7465 179.583 33.9634C179.583 34.1802 179.531 34.3938 179.431 34.5857C179.331 34.7776 179.187 34.9421 179.011 35.0648ZM193.756 24.7235L186.255 29.9859C186.034 30.1426 185.771 30.2266 185.501 30.2266C185.231 30.2266 184.968 30.1426 184.747 29.9859L168.66 18.686C168.484 18.5631 168.339 18.3987 168.24 18.2068C168.14 18.015 168.087 17.8015 168.087 17.5845V7.05968C168.088 6.81508 168.154 6.57534 168.279 6.36622C168.404 6.15709 168.583 5.98648 168.797 5.87271C169.01 5.75894 169.25 5.70632 169.491 5.72049C169.732 5.73466 169.964 5.81509 170.163 5.95314L193.791 22.5206C193.964 22.647 194.105 22.814 194.201 23.0074C194.297 23.2008 194.345 23.4149 194.342 23.6314C194.338 23.8479 194.283 24.0603 194.181 24.2504C194.079 24.4406 193.933 24.6029 193.756 24.7235Z" fill="white"/>
<path d="M106.578 69.6837C105.598 68.5421 104.287 67.7457 102.832 67.4094C106.335 66.6649 108.086 64.3652 108.086 60.5101C108.117 59.3463 107.871 58.1921 107.37 57.1448C106.868 56.0975 106.126 55.188 105.205 54.493C103.586 53.2671 101.663 52.5205 99.6501 52.336C99.4289 52.2562 99.1961 52.2148 98.9614 52.2136H89.8922C89.4731 52.2136 89.071 52.3822 88.7742 52.6823C88.4773 52.9824 88.3099 53.3897 88.3086 53.8148V55.5179C88.3099 55.9431 88.4773 56.3503 88.7742 56.6504C89.071 56.9506 89.4731 57.1191 89.8922 57.1191H95.015C95.531 57.2158 96.0538 57.2704 96.5784 57.2823C100.399 57.2823 102.31 58.705 102.31 61.5504C102.31 63.4371 101.178 64.6405 98.9312 65.1606H92.8633C92.4433 65.1606 92.0405 65.3299 91.7435 65.6311C91.4465 65.9323 91.2797 66.3409 91.2797 66.7669V68.465C91.2797 68.891 91.4465 69.2995 91.7435 69.6008C92.0405 69.902 92.4433 70.0712 92.8633 70.0712H99.0971C99.8216 70.1921 100.516 70.4535 101.143 70.8412C102.045 71.4497 102.494 72.4475 102.49 73.8345C102.507 74.3967 102.394 74.9552 102.16 75.4652C101.926 75.9752 101.578 76.4226 101.143 76.7716C100.242 77.5161 98.8792 77.8884 97.056 77.8884C96.4709 77.8898 95.8883 77.9651 95.3216 78.1127H89.8922C89.6842 78.1127 89.4783 78.1543 89.2862 78.235C89.094 78.3157 88.9195 78.4341 88.7724 78.5832C88.6254 78.7324 88.5087 78.9094 88.4291 79.1043C88.3496 79.2992 88.3086 79.5081 88.3086 79.719V81.4171C88.3086 81.628 88.3496 81.8369 88.4291 82.0318C88.5087 82.2266 88.6254 82.4037 88.7724 82.5529C88.9195 82.702 89.094 82.8203 89.2862 82.9011C89.4783 82.9818 89.6842 83.0233 89.8922 83.0233H99.3585C99.7184 83.0199 100.069 82.9061 100.364 82.697C102.167 82.4083 103.864 81.6492 105.291 80.4941C107.268 78.8114 108.255 76.5354 108.252 73.6662C108.215 72.1625 107.6 70.7331 106.537 69.6837" fill="white"/>
<path d="M105.07 70.7037C104.112 69.586 102.834 68.7983 101.415 68.4498V68.409C104.857 67.6441 106.578 65.3512 106.578 61.5301C106.609 60.3663 106.363 59.2121 105.862 58.1648C105.361 57.1175 104.618 56.208 103.697 55.513C102.078 54.2871 100.155 53.5405 98.1423 53.356C97.9211 53.2762 97.6883 53.2348 97.4535 53.2336H88.3844C87.9652 53.2336 87.5632 53.4022 87.2664 53.7023C86.9695 54.0024 86.8021 54.4097 86.8008 54.8348V56.538C86.8021 56.9631 86.9695 57.3703 87.2664 57.6705C87.5632 57.9706 87.9652 58.1391 88.3844 58.1391H93.5071C94.0232 58.2358 94.546 58.2904 95.0706 58.3023C98.8913 58.3023 100.802 59.725 100.802 62.5704C100.802 64.4571 99.6706 65.6605 97.4234 66.1807H91.3555C90.9355 66.1807 90.5327 66.3499 90.2357 66.6511C89.9387 66.9524 89.7719 67.3609 89.7719 67.7869V69.485C89.7719 69.911 89.9387 70.3195 90.2357 70.6208C90.5327 70.922 90.9355 71.0912 91.3555 71.0912H97.5893C98.3138 71.2121 99.0085 71.4735 99.6354 71.8612C100.537 72.4697 100.986 73.4675 100.983 74.8545C101 75.4167 100.887 75.9752 100.653 76.4852C100.419 76.9952 100.07 77.4426 99.6354 77.7917C98.7338 78.5362 97.3714 78.9084 95.5482 78.9084C94.9631 78.9098 94.3805 78.9851 93.8138 79.1328H88.3844C87.9644 79.1328 87.5616 79.302 87.2646 79.6032C86.9676 79.9045 86.8008 80.313 86.8008 80.739V82.4371C86.8008 82.648 86.8417 82.8569 86.9213 83.0518C87.0009 83.2467 87.1176 83.4237 87.2646 83.5729C87.4116 83.722 87.5862 83.8404 87.7784 83.9211C87.9705 84.0018 88.1764 84.0434 88.3844 84.0434H97.8507C98.2106 84.0399 98.5611 83.9261 98.8562 83.717C100.659 83.4283 102.357 82.6692 103.783 81.5141C105.76 79.8314 106.747 77.5554 106.744 74.6862C106.707 73.1825 106.092 71.7531 105.03 70.7037" fill="#263D61"/>
</svg>
