<svg width="200" height="83" viewBox="0 0 200 83" fill="none" xmlns="http://www.w3.org/2000/svg">
<g clip-path="url(#clip0)">
<path d="M25.2319 28.4851V9.68439C25.2319 7.01437 23.8441 5.15894 20.7065 5.15894H18.6952V17.6995C17.6543 15.3764 14.7379 13.4958 12.0679 13.4958C4.25393 13.4958 0 19.1828 0 27.9421C0 35.2633 5.39032 41.3978 12.4199 41.3978C21.5713 41.3978 25.2319 36.2538 25.2319 28.4851ZM18.5544 28.1885C18.5544 33.0357 16.9202 35.8063 13.2093 35.8063C9.39786 35.8063 6.53677 32.1809 6.53677 26.6498C6.53677 22.3456 8.71402 19.1074 12.0679 19.1074C15.6279 19.1074 18.5493 21.531 18.5493 28.2086" fill="#263D61"/>
<path d="M27.525 27.9421C27.525 35.0169 32.1259 41.3978 40.141 41.3978C48.7746 41.3978 53.3503 35.0169 53.3503 27.0018C53.3503 19.927 48.7746 13.4958 40.7293 13.4958C32.1209 13.4958 27.52 19.927 27.52 27.9421H27.525ZM46.4666 27.9421C46.4666 32.2916 44.586 35.4594 40.7293 35.4594C36.3245 35.4594 34.3937 32.2916 34.3937 27.0018C34.3937 22.597 36.3245 19.4292 40.136 19.4292C44.4854 19.4292 46.4666 22.597 46.4666 27.9421Z" fill="#263D61"/>
<path d="M79.0901 28.8322V18.8359C79.0901 15.7234 77.4559 14.0892 73.5992 14.0892H72.4075V29.0785C72.4075 33.604 70.4767 35.5097 67.7564 35.5097C64.7394 35.5097 62.366 33.5286 62.366 28.631V18.8359C62.366 15.7234 60.6816 14.0892 56.8751 14.0892H55.6382V29.2747C55.6382 37.0433 60.8324 41.3978 67.4094 41.3978C75.1781 41.3978 79.0851 37.1439 79.0851 28.8271" fill="#263D61"/>
<path d="M196.998 17.5688L173.365 1.23691C172.321 0.51325 171.099 0.0892528 169.832 0.0109214C168.564 -0.0674101 167.299 0.202916 166.174 0.792568C165.049 1.38222 164.107 2.26868 163.451 3.35576C162.794 4.44284 162.447 5.68902 162.449 6.9591V39.6429C162.453 40.5586 162.637 41.4645 162.991 42.3088C163.345 43.1532 163.863 43.9195 164.513 44.5639C165.164 45.2083 165.935 45.7182 166.782 46.0645C167.63 46.4108 168.537 46.5866 169.453 46.582C170.866 46.5838 172.246 46.1521 173.405 45.345L197.038 29.0131C197.964 28.3735 198.722 27.5187 199.244 26.522C199.767 25.5253 200.041 24.4165 200.041 23.291C200.041 22.1654 199.767 21.0567 199.244 20.06C198.722 19.0633 197.964 18.2084 197.038 17.5688" fill="#3FC0F0"/>
<path d="M179.047 34.5794L170.177 40.729C169.979 40.8667 169.747 40.9475 169.506 40.9626C169.265 40.9777 169.024 40.9265 168.81 40.8146C168.596 40.7027 168.417 40.5343 168.292 40.3278C168.167 40.1212 168.101 39.8844 168.101 39.6429V27.3538C168.101 27.1126 168.168 26.8762 168.293 26.67C168.418 26.4638 168.597 26.2955 168.811 26.1833C169.024 26.0712 169.264 26.0193 169.505 26.0332C169.746 26.0472 169.978 26.1265 170.177 26.2626L179.047 32.4022C179.223 32.5238 179.368 32.6864 179.467 32.876C179.567 33.0656 179.619 33.2766 179.619 33.4908C179.619 33.705 179.567 33.916 179.467 34.1056C179.368 34.2952 179.223 34.4578 179.047 34.5794Z" fill="white"/>
<path d="M116.701 26.9012C116.701 19.037 111.502 13.4958 104.729 13.4958C101.114 13.4958 98.8408 15.6228 97.5033 17.5537V9.78496C97.5033 6.66743 95.7232 5.18408 93.1488 5.18408H90.876V27.8114C90.876 35.8264 96.6132 41.4179 103.447 41.4179C111.557 41.4179 116.706 34.9364 116.706 26.9214L116.701 26.9012ZM109.828 28.0577C109.828 32.362 107.454 35.5298 104.141 35.5298C100.178 35.5298 97.5586 33.0156 97.5586 26.8711C97.5586 22.7177 100.073 19.4041 103.447 19.4041C107.505 19.4041 109.828 21.5813 109.828 28.0577Z" fill="#263D61"/>
<path d="M107.821 26.9012C107.821 19.037 102.627 13.4958 95.849 13.4958C92.2387 13.4958 89.9609 15.6228 88.6284 17.5537V9.78496C88.6284 6.66743 86.8484 5.18408 84.2739 5.18408H81.9961V27.8114C81.9961 35.8264 87.7384 41.4179 94.5668 41.4179C102.682 41.4179 107.826 34.9364 107.826 26.9214L107.821 26.9012ZM100.953 28.0577C100.953 32.362 98.5743 35.5298 95.2607 35.5298C91.3034 35.5298 88.6837 33.0156 88.6837 26.8711C88.6837 22.7177 91.1979 19.4041 94.5668 19.4041C98.6246 19.4041 100.953 21.5813 100.953 28.0577Z" fill="#3FC0F0"/>
<path d="M131.61 37.0433V35.6102H129.825C126.713 35.6102 125.325 34.7655 125.325 32.0904V9.63914C125.325 7.125 123.892 5.18408 120.578 5.18408H118.698V32.7391C118.698 38.1294 121.664 41.0508 127.155 41.0508C130.077 41.0508 131.61 39.9144 131.61 37.0282" fill="#263D61"/>
<path d="M154.786 23.834C154.786 17.4531 149.637 13.4958 144.101 13.4958C136.478 13.4958 131.027 19.0873 131.027 27.9924C130.995 29.7369 131.309 31.4704 131.953 33.0922C132.596 34.7139 133.556 36.1915 134.776 37.439C135.995 38.6865 137.451 39.6789 139.058 40.3585C140.665 41.0382 142.391 41.3914 144.136 41.3978C151.457 41.3978 153.785 38.773 153.785 35.3639V33.2821H153.539C151.412 35.2633 148.144 35.7963 145.373 35.7963C141.466 35.7963 138.399 33.6693 137.906 30.3054H142.26C151.065 30.3054 154.776 28.7215 154.776 23.8239L154.786 23.834ZM148.541 23.0345C148.541 24.9151 147.108 25.604 140.822 25.604H137.856L137.906 24.714C138.052 21.6467 140.279 19.027 143.497 19.027C146.56 19.027 148.526 20.3595 148.526 23.0496" fill="#263D61"/>
<path d="M193.795 24.3771L186.293 29.5663C186.072 29.7208 185.808 29.8036 185.539 29.8036C185.269 29.8036 185.006 29.7208 184.784 29.5663L168.694 18.4236C168.518 18.3024 168.373 18.1403 168.273 17.9511C168.174 17.762 168.121 17.5514 168.121 17.3375V6.95913C168.121 6.71794 168.188 6.48154 168.313 6.27533C168.438 6.06911 168.617 5.90087 168.831 5.78869C169.044 5.6765 169.284 5.62461 169.525 5.63858C169.766 5.65255 169.998 5.73187 170.197 5.86799L193.83 22.1999C194.006 22.3222 194.149 22.485 194.248 22.6746C194.346 22.8641 194.398 23.0747 194.398 23.2885C194.398 23.5023 194.346 23.7129 194.248 23.9024C194.149 24.0919 194.006 24.2548 193.83 24.3771" fill="white"/>
<path d="M108.068 63.0647C106.812 62.1504 105.384 61.5006 103.87 61.1549C102.355 60.8092 100.787 60.7746 99.2584 61.0534V57.3777H109.018C109.461 57.3742 109.896 57.2635 110.287 57.0551C110.677 56.8467 111.012 56.5467 111.261 56.181C111.513 55.8245 111.674 55.4113 111.728 54.978C111.782 54.5447 111.729 54.1047 111.573 53.697C111.366 53.1785 111.007 52.7348 110.543 52.4242C110.079 52.1137 109.531 51.9509 108.973 51.9572H96.5432C96.1869 51.9585 95.8344 52.0303 95.5059 52.1685C95.1775 52.3067 94.8797 52.5085 94.6296 52.7623C94.3796 53.0161 94.1822 53.3169 94.0489 53.6473C93.9156 53.9777 93.8491 54.3313 93.853 54.6876V63.5072C93.8501 64.1884 94.069 64.852 94.4765 65.3978C95.1353 66.2677 95.8342 66.7102 96.5432 66.7102C97.0714 66.7094 97.5863 66.5442 98.0165 66.2375C98.0919 66.1923 98.1673 66.147 98.283 66.0867C99.1011 65.5937 100.038 65.3326 100.993 65.3314C101.948 65.3301 102.886 65.5888 103.705 66.0796C104.525 66.5704 105.195 67.275 105.645 68.1177C106.094 68.9604 106.306 69.9096 106.258 70.8635C106.173 72.2018 105.584 73.4581 104.61 74.3798C103.636 75.3016 102.349 75.8202 101.008 75.8315C100.021 75.8281 99.0553 75.5466 98.221 75.0192C97.3868 74.4918 96.7181 73.7399 96.2918 72.8497C95.9717 72.2043 95.4083 71.7124 94.7256 71.4823C94.0429 71.2522 93.2967 71.3028 92.6513 71.6228C92.0058 71.9429 91.5139 72.5062 91.2839 73.189C91.0538 73.8717 91.1043 74.6178 91.4244 75.2633C92.2955 77.0676 93.66 78.5882 95.3597 79.6489C97.0594 80.7097 99.0249 81.2673 101.028 81.257H101.451C104.254 81.1392 106.899 79.9256 108.816 77.8775C110.734 75.8293 111.77 73.1103 111.703 70.3054C111.689 68.9042 111.353 67.525 110.723 66.2735C110.093 65.0219 109.185 63.9312 108.068 63.0848" fill="#44C1F0"/>
<path d="M106.559 64.0704C105.304 63.1561 103.875 62.5064 102.361 62.1606C100.847 61.8149 99.2777 61.7804 97.7497 62.0591V58.3834H107.51C107.952 58.3799 108.387 58.2692 108.778 58.0608C109.169 57.8524 109.503 57.5525 109.752 57.1867C110.004 56.8302 110.165 56.4171 110.219 55.9838C110.274 55.5505 110.22 55.1105 110.064 54.7027C109.857 54.1842 109.498 53.7405 109.034 53.43C108.57 53.1194 108.023 52.9566 107.464 52.9629H95.0344C94.6781 52.9643 94.3256 53.0361 93.9971 53.1742C93.6687 53.3124 93.3709 53.5142 93.1208 53.768C92.8708 54.0218 92.6734 54.3226 92.5401 54.653C92.4068 54.9835 92.3403 55.337 92.3442 55.6933V64.5129C92.3413 65.1941 92.5602 65.8577 92.9678 66.4035C93.6265 67.2734 94.3254 67.7159 95.0344 67.7159C95.5626 67.7151 96.0775 67.5499 96.5077 67.2433C96.5831 67.198 96.6585 67.1528 96.7742 67.0924C97.5923 66.5995 98.5292 66.3384 99.4843 66.3371C100.44 66.3359 101.377 66.5945 102.196 67.0853C103.016 67.5762 103.686 68.2807 104.136 69.1234C104.586 69.9662 104.798 70.9153 104.749 71.8693C104.664 73.2075 104.075 74.4639 103.101 75.3856C102.127 76.3073 100.84 76.826 99.4995 76.8372C98.5125 76.8339 97.5465 76.5523 96.7122 76.0249C95.878 75.4975 95.2093 74.7456 94.783 73.8555C94.4629 73.21 93.8996 72.7181 93.2168 72.4881C92.5341 72.258 91.7879 72.3085 91.1425 72.6286C90.497 72.9486 90.0052 73.512 89.7751 74.1947C89.545 74.8774 89.5955 75.6236 89.9156 76.269C90.7867 78.0733 92.1512 79.5939 93.8509 80.6547C95.5506 81.7154 97.5161 82.273 99.5196 82.2628H99.942C102.745 82.145 105.39 80.9314 107.307 78.8832C109.225 76.8351 110.262 74.116 110.195 71.3112C110.18 69.91 109.845 68.5308 109.214 67.2792C108.584 66.0276 107.676 64.9369 106.559 64.0905" fill="#263D61"/>
</g>
<defs>
<clipPath id="clip0">
<rect width="200" height="82.2527" fill="white"/>
</clipPath>
</defs>
</svg>
