<svg width="200" height="74" viewBox="0 0 200 74" fill="none" xmlns="http://www.w3.org/2000/svg">
<g clip-path="url(#clip0)">
<path d="M25.2319 28.4852V9.68445C25.2319 7.01443 23.8441 5.159 20.6763 5.159H18.665V17.6995C17.6292 15.3765 14.7077 13.4959 12.0377 13.4959C4.25393 13.4959 0 19.1829 0 27.9422C0 35.2633 5.39032 41.3978 12.4148 41.3978C21.5663 41.3978 25.2319 36.2539 25.2319 28.4852ZM18.5493 28.1885C18.5493 33.0358 16.9202 35.8064 13.2093 35.8064C9.39786 35.8064 6.53677 32.181 6.53677 26.6499C6.53677 22.3457 8.71402 19.1075 12.0679 19.1075C15.6279 19.1075 18.5443 21.5311 18.5443 28.2086" fill="#263D61"/>
<path d="M27.5249 27.9422C27.5249 35.017 32.1258 41.3979 40.1409 41.3979C48.7443 41.3979 53.3451 35.017 53.3451 27.0019C53.3451 19.9271 48.7443 13.4959 40.7342 13.4959C32.1258 13.4959 27.5249 19.9271 27.5249 27.9422ZM46.4715 27.9422C46.4715 32.2916 44.5909 35.4595 40.7342 35.4595C36.3294 35.4595 34.3986 32.2916 34.3986 27.0019C34.3986 22.5971 36.3294 19.4293 40.1409 19.4293C44.4903 19.4293 46.4715 22.5971 46.4715 27.9422Z" fill="#263D61"/>
<path d="M79.0901 28.8322V18.8359C79.0901 15.7234 77.4559 14.0892 73.5992 14.0892H72.4075V29.0786C72.4075 33.604 70.4767 35.5097 67.7564 35.5097C64.7394 35.5097 62.366 33.5286 62.366 28.631V18.8359C62.366 15.7234 60.6816 14.0892 56.8751 14.0892H55.6382V29.2747C55.6382 37.0434 60.8324 41.3978 67.4094 41.3978C75.1781 41.3978 79.0851 37.1439 79.0851 28.8271" fill="#263D61"/>
<path d="M196.998 17.5688L173.365 1.23697C172.321 0.513311 171.099 0.0893139 169.832 0.0109824C168.564 -0.0673491 167.299 0.202977 166.174 0.792629C165.049 1.38228 164.107 2.26874 163.451 3.35582C162.794 4.4429 162.447 5.68909 162.449 6.95916V39.643C162.453 40.5586 162.637 41.4645 162.991 42.3089C163.345 43.1532 163.863 43.9195 164.513 44.5639C165.164 45.2084 165.935 45.7183 166.782 46.0646C167.63 46.4108 168.537 46.5867 169.453 46.582C170.866 46.5839 172.246 46.1521 173.405 45.3451L197.038 29.0132C197.964 28.3736 198.722 27.5187 199.244 26.522C199.767 25.5253 200.041 24.4166 200.041 23.291C200.041 22.1655 199.767 21.0567 199.244 20.06C198.722 19.0633 197.964 18.2085 197.038 17.5688" fill="#3FC0F0"/>
<path d="M179.047 34.5745L170.177 40.7291C169.979 40.8668 169.747 40.9476 169.506 40.9627C169.265 40.9778 169.024 40.9266 168.81 40.8147C168.596 40.7028 168.417 40.5344 168.292 40.3278C168.167 40.1213 168.101 39.8844 168.101 39.643V27.3538C168.101 27.1127 168.168 26.8763 168.293 26.67C168.418 26.4638 168.597 26.2956 168.811 26.1834C169.024 26.0712 169.264 26.0193 169.505 26.0333C169.746 26.0473 169.978 26.1266 170.177 26.2627L179.047 32.3972C179.222 32.5195 179.366 32.6824 179.464 32.8719C179.563 33.0615 179.615 33.2721 179.615 33.4858C179.615 33.6996 179.563 33.9102 179.464 34.0997C179.366 34.2893 179.222 34.4521 179.047 34.5745Z" fill="white"/>
<path d="M116.696 26.9013C116.696 19.0371 111.502 13.4959 104.729 13.4959C101.114 13.4959 98.8408 15.6229 97.5033 17.5537V9.78502C97.5033 6.66749 95.7232 5.18414 93.1488 5.18414H90.876V27.8114C90.876 35.8265 96.6132 41.418 103.447 41.418C111.557 41.418 116.701 34.9365 116.701 26.9214L116.696 26.9013ZM109.828 28.0578C109.828 32.362 107.454 35.5298 104.141 35.5298C100.178 35.5298 97.5586 33.0157 97.5586 26.8711C97.5586 22.7178 100.073 19.4041 103.447 19.4041C107.505 19.4041 109.828 21.5763 109.828 28.0578Z" fill="#263D61"/>
<path d="M107.821 26.9013C107.821 19.0371 102.627 13.4959 95.849 13.4959C92.2387 13.4959 89.9609 15.6229 88.6284 17.5537V9.78502C88.6284 6.66749 86.8484 5.18414 84.2739 5.18414H81.9961V27.8114C81.9961 35.8265 87.7384 41.418 94.5668 41.418C102.682 41.418 107.826 34.9365 107.826 26.9214L107.821 26.9013ZM100.953 28.0578C100.953 32.362 98.5743 35.5298 95.2607 35.5298C91.3034 35.5298 88.6837 33.0157 88.6837 26.8711C88.6837 22.7178 91.1979 19.4041 94.5668 19.4041C98.6246 19.4041 100.953 21.5763 100.953 28.0578Z" fill="#3FC0F0"/>
<path d="M131.61 37.0434V35.6103H129.825C126.713 35.6103 125.325 34.7655 125.325 32.0905V9.63417C125.325 7.12003 123.892 5.18414 120.578 5.18414H118.698V32.7391C118.698 38.1295 121.664 41.0509 127.155 41.0509C130.077 41.0509 131.61 39.9145 131.61 37.0283" fill="#263D61"/>
<path d="M154.785 23.8341C154.785 17.4532 149.636 13.4959 144.1 13.4959C136.477 13.4959 131.027 19.0874 131.027 27.9874C130.993 29.7323 131.308 31.4664 131.951 33.0888C132.594 34.7111 133.553 36.1893 134.773 37.4373C135.993 38.6853 137.449 39.6782 139.057 40.3581C140.664 41.0381 142.39 41.3915 144.136 41.3979C151.457 41.3979 153.785 38.7731 153.785 35.3639V33.2822H153.538C151.411 35.2634 148.143 35.7964 145.373 35.7964C141.466 35.7964 138.398 33.6694 137.906 30.3055H142.255C151.065 30.3055 154.775 28.7216 154.775 23.824L154.785 23.8341ZM148.54 23.0346C148.54 24.9101 147.107 25.604 140.822 25.604H137.855L137.906 24.714C138.051 21.6468 140.279 19.027 143.492 19.027C146.559 19.027 148.52 20.3595 148.52 23.0497" fill="#263D61"/>
<path d="M193.795 24.3771L186.293 29.5663C186.072 29.7208 185.808 29.8036 185.539 29.8036C185.269 29.8036 185.006 29.7208 184.784 29.5663L168.694 18.4236C168.518 18.3024 168.373 18.1403 168.273 17.9511C168.174 17.762 168.121 17.5514 168.121 17.3375V6.95913C168.121 6.71794 168.188 6.48154 168.313 6.27533C168.438 6.06911 168.617 5.90087 168.831 5.78869C169.044 5.6765 169.284 5.62461 169.525 5.63858C169.766 5.65255 169.998 5.73187 170.197 5.86799L193.83 22.1999C194.006 22.3222 194.149 22.485 194.248 22.6746C194.346 22.8641 194.398 23.0747 194.398 23.2885C194.398 23.5023 194.346 23.7129 194.248 23.9024C194.149 24.0919 194.006 24.2548 193.83 24.3771" fill="white"/>
<path d="M76.1531 70.7982V71.9447C76.1518 72.1483 76.0703 72.3432 75.9263 72.4872C75.7823 72.6312 75.5874 72.7127 75.3838 72.714H73.1663C72.9627 72.7127 72.7678 72.6312 72.6238 72.4872C72.4798 72.3432 72.3983 72.1483 72.397 71.9447V70.8234C70.0488 70.4865 67.962 69.4708 66.6849 67.6556C66.4417 67.3131 66.2973 66.9105 66.2673 66.4916C66.2374 66.0727 66.3231 65.6536 66.515 65.2801C66.707 64.9065 66.9978 64.5929 67.3559 64.3734C67.7139 64.1538 68.1254 64.0369 68.5453 64.0352H68.7314C69.138 64.0407 69.5363 64.1504 69.8885 64.3538C70.2406 64.5571 70.5347 64.8473 70.7427 65.1967C71.3964 66.2275 72.6484 66.841 74.3681 66.841C76.0878 66.841 77.1186 66.1823 77.1186 65.0962C77.1186 64.4073 76.7465 63.6933 75.0519 63.3765L71.8439 62.6876C68.0073 61.858 66.2021 60.1081 66.2021 57.0157C66.2021 53.5764 68.666 51.2835 72.4171 50.8008V49.7498C72.4171 49.6094 72.4448 49.4704 72.4987 49.3407C72.5526 49.2111 72.6316 49.0933 72.7311 48.9943C72.8306 48.8952 72.9487 48.8168 73.0786 48.7635C73.2086 48.7103 73.3477 48.6832 73.4881 48.6838H75.1022C75.3854 48.6838 75.6571 48.796 75.8578 48.9958C76.0585 49.1955 76.1719 49.4667 76.1732 49.7498V50.9114C78.0165 51.1757 79.7022 52.0972 80.9199 53.506C81.1726 53.844 81.3259 54.2458 81.3626 54.6662C81.3994 55.0866 81.3181 55.509 81.1279 55.8857C80.9377 56.2624 80.6462 56.5786 80.2861 56.7987C79.926 57.0187 79.5116 57.1339 79.0896 57.1314C78.6754 57.1408 78.2658 57.0418 77.9016 56.8443C77.5373 56.6467 77.231 56.3574 77.013 56.005C76.5403 55.1754 75.6704 54.6675 74.1971 54.6675C72.4774 54.6675 71.3561 55.3262 71.3561 56.5833C71.3561 57.7046 72.1607 58.1923 73.7094 58.5041L76.4297 59.0773C80.0098 59.8215 82.3027 61.2847 82.3027 64.6386C82.3027 67.9925 79.9243 70.225 76.1732 70.7982" fill="#72CAEE"/>
<path d="M94.3055 70.7982V71.9447C94.3042 72.1483 94.2227 72.3432 94.0787 72.4872C93.9347 72.6312 93.7398 72.7127 93.5361 72.714H91.3187C91.1146 72.714 90.919 72.633 90.7747 72.4887C90.6304 72.3444 90.5493 72.1487 90.5493 71.9447V70.8234C88.2011 70.4865 86.1144 69.4708 84.8372 67.6556C84.5941 67.3131 84.4496 66.9105 84.4197 66.4916C84.3897 66.0727 84.4754 65.6536 84.6674 65.2801C84.8593 64.9065 85.1502 64.5929 85.5082 64.3734C85.8663 64.1538 86.2777 64.0369 86.6977 64.0352H86.8837C87.2903 64.0407 87.6887 64.1504 88.0408 64.3538C88.3929 64.5571 88.687 64.8473 88.895 65.1967C89.5487 66.2275 90.8008 66.841 92.5204 66.841C94.2401 66.841 95.2709 66.1823 95.2709 65.0962C95.2709 64.4073 94.8988 63.6933 93.2043 63.3765L89.9962 62.6876C86.1596 61.858 84.3545 60.1081 84.3545 57.0157C84.3545 53.5764 86.8184 51.2835 90.5695 50.8008V49.7498C90.5695 49.6094 90.5972 49.4704 90.6511 49.3407C90.705 49.2111 90.7839 49.0933 90.8835 48.9943C90.983 48.8952 91.1011 48.8168 91.231 48.7635C91.3609 48.7103 91.5001 48.6832 91.6405 48.6838H93.2546C93.5378 48.6838 93.8094 48.796 94.0101 48.9958C94.2108 49.1955 94.3243 49.4667 94.3256 49.7498V50.9114C96.0654 51.2382 97.8454 51.9874 99.0673 53.506C99.3216 53.8432 99.4766 54.2448 99.5145 54.6655C99.5524 55.0861 99.4719 55.509 99.282 55.8862C99.092 56.2635 98.8003 56.5801 98.4398 56.8001C98.0793 57.0201 97.6643 57.1349 97.242 57.1314C96.8277 57.1408 96.4182 57.0418 96.0539 56.8443C95.6897 56.6467 95.3833 56.3574 95.1653 56.005C94.6927 55.1754 93.8177 54.6675 92.3444 54.6675C90.6298 54.6675 89.5085 55.3262 89.5085 56.5833C89.5085 57.7046 90.313 58.1923 91.8617 58.5041L94.582 59.0773C98.1622 59.8215 100.455 61.2847 100.455 64.6386C100.455 67.9925 98.0516 70.225 94.3055 70.7982Z" fill="#72CAEE"/>
<path d="M112.452 70.7982V71.9447C112.452 72.1479 112.372 72.3428 112.229 72.4869C112.086 72.6311 111.891 72.7127 111.688 72.714H109.471C109.267 72.714 109.071 72.633 108.927 72.4887C108.782 72.3444 108.701 72.1487 108.701 71.9447V70.8234C106.348 70.4865 104.266 69.4708 102.989 67.6556C102.746 67.3131 102.602 66.9105 102.572 66.4916C102.542 66.0727 102.627 65.6536 102.819 65.2801C103.011 64.9065 103.302 64.5929 103.66 64.3734C104.018 64.1538 104.43 64.0369 104.85 64.0352H105.036C105.442 64.0412 105.84 64.1511 106.192 64.3544C106.545 64.5577 106.839 64.8477 107.047 65.1967C107.701 66.2275 108.953 66.841 110.667 66.841C112.382 66.841 113.418 66.1823 113.418 65.0962C113.418 64.4073 113.046 63.6933 111.356 63.3765L108.108 62.6876C104.271 61.858 102.466 60.1081 102.466 57.0157C102.466 53.5764 104.93 51.2835 108.681 50.8008V49.7498C108.681 49.6094 108.709 49.4704 108.763 49.3407C108.817 49.2111 108.896 49.0933 108.995 48.9943C109.095 48.8952 109.213 48.8168 109.343 48.7635C109.473 48.7103 109.612 48.6832 109.752 48.6838H111.366C111.649 48.6838 111.92 48.7962 112.12 48.9961C112.32 49.196 112.432 49.4671 112.432 49.7498V50.9114C114.172 51.2382 115.982 51.9874 117.179 53.506C117.433 53.8432 117.588 54.2448 117.626 54.6655C117.664 55.0861 117.584 55.509 117.394 55.8862C117.204 56.2635 116.912 56.5801 116.552 56.8001C116.191 57.0201 115.776 57.1349 115.354 57.1314C114.94 57.1408 114.53 57.0418 114.166 56.8443C113.801 56.6467 113.495 56.3574 113.277 56.005C112.804 55.1754 111.93 54.6675 110.456 54.6675C108.737 54.6675 107.62 55.3262 107.62 56.5833C107.62 57.7046 108.425 58.1923 109.969 58.5041L112.694 59.0773C116.274 59.8215 118.567 61.2847 118.567 64.6386C118.567 67.9925 116.188 70.225 112.432 70.7982" fill="#72CAEE"/>
<path d="M75.1477 71.8039V72.9504C75.1464 73.154 75.065 73.3489 74.921 73.4929C74.777 73.6369 74.582 73.7184 74.3784 73.7197H72.1609C71.9573 73.7184 71.7624 73.6369 71.6184 73.4929C71.4744 73.3489 71.3929 73.154 71.3916 72.9504V71.8291C69.0434 71.4922 66.9567 70.4765 65.6795 68.6612C65.4363 68.3188 65.2919 67.9162 65.262 67.4973C65.232 67.0784 65.3177 66.6593 65.5096 66.2857C65.7016 65.9122 65.9925 65.5986 66.3505 65.379C66.7085 65.1595 67.12 65.0425 67.54 65.0409H67.726C68.1326 65.0464 68.531 65.1561 68.8831 65.3594C69.2352 65.5628 69.5293 65.853 69.7373 66.2024C70.391 67.2332 71.643 67.8467 73.3627 67.8467C75.0824 67.8467 76.1132 67.188 76.1132 66.1018C76.1132 65.413 75.7411 64.699 74.0465 64.3822L70.8385 63.6933C67.0019 62.8636 65.1968 61.1138 65.1968 58.0214C65.1968 54.582 67.6606 52.2891 71.4117 51.8064V50.7555C71.4117 50.6151 71.4395 50.4761 71.4934 50.3464C71.5472 50.2168 71.6262 50.099 71.7257 50C71.8253 49.9009 71.9434 49.8225 72.0733 49.7692C72.2032 49.7159 72.3423 49.6889 72.4828 49.6895H74.0968C74.38 49.6895 74.6517 49.8017 74.8524 50.0014C75.0531 50.2012 75.1665 50.4723 75.1679 50.7555V51.9171C77.0111 52.1814 78.6968 53.1028 79.9146 54.5117C80.1672 54.8497 80.3205 55.2515 80.3573 55.6719C80.394 56.0923 80.3127 56.5146 80.1225 56.8914C79.9323 57.2681 79.6408 57.5843 79.2807 57.8043C78.9206 58.0244 78.5063 58.1396 78.0843 58.137C77.67 58.1465 77.2604 58.0475 76.8962 57.85C76.5319 57.6524 76.2256 57.3631 76.0076 57.0107C75.5349 56.181 74.665 55.6732 73.1917 55.6732C71.4721 55.6732 70.3508 56.3319 70.3508 57.589C70.3508 58.7103 71.1553 59.198 72.704 59.5098L75.4243 60.083C79.0044 60.8272 81.2973 62.2904 81.2973 65.6443C81.2973 68.9981 78.919 71.2307 75.1679 71.8039" fill="#263D61"/>
<path d="M93.3001 71.8039V72.9504C93.2988 73.154 93.2173 73.3489 93.0733 73.4929C92.9293 73.6369 92.7344 73.7184 92.5308 73.7197H90.3133C90.1093 73.7197 89.9136 73.6386 89.7693 73.4944C89.625 73.3501 89.544 73.1544 89.544 72.9504V71.8291C87.1958 71.4922 85.109 70.4765 83.8318 68.6612C83.5887 68.3188 83.4443 67.9162 83.4143 67.4973C83.3844 67.0784 83.47 66.6593 83.662 66.2857C83.854 65.9122 84.1448 65.5986 84.5029 65.379C84.8609 65.1595 85.2723 65.0425 85.6923 65.0409H85.8783C86.2849 65.0464 86.6833 65.1561 87.0354 65.3594C87.3876 65.5628 87.6817 65.853 87.8897 66.2024C88.5433 67.2332 89.7954 67.8467 91.5151 67.8467C93.2347 67.8467 94.2655 67.188 94.2655 66.1018C94.2655 65.413 93.8934 64.699 92.1989 64.3822L88.9909 63.6933C85.1543 62.8636 83.3491 61.1138 83.3491 58.0214C83.3491 54.582 85.813 52.2891 89.5641 51.8064V50.7555C89.5641 50.6151 89.5918 50.4761 89.6457 50.3464C89.6996 50.2168 89.7786 50.099 89.8781 50C89.9776 49.9009 90.0957 49.8225 90.2256 49.7692C90.3555 49.7159 90.4947 49.6889 90.6351 49.6895H92.2492C92.5324 49.6895 92.804 49.8017 93.0047 50.0014C93.2055 50.2012 93.3189 50.4723 93.3202 50.7555V51.9171C95.06 52.2439 96.84 52.9931 98.0619 54.5117C98.3163 54.8488 98.4712 55.2505 98.5091 55.6711C98.5471 56.0918 98.4665 56.5147 98.2766 56.8919C98.0866 57.2692 97.7949 57.5857 97.4344 57.8058C97.0739 58.0258 96.659 58.1406 96.2366 58.137C95.8223 58.1465 95.4128 58.0475 95.0485 57.85C94.6843 57.6524 94.378 57.3631 94.1599 57.0107C93.6873 56.181 92.8123 55.6732 91.3391 55.6732C89.6244 55.6732 88.5031 56.3319 88.5031 57.589C88.5031 58.7103 89.3076 59.198 90.8564 59.5098L93.5767 60.083C97.1568 60.8272 99.4497 62.2904 99.4497 65.6443C99.4497 68.9981 97.0462 71.2307 93.3001 71.8039Z" fill="#263D61"/>
<path d="M111.447 71.8039V72.9504C111.447 73.1535 111.367 73.3485 111.224 73.4926C111.08 73.6367 110.886 73.7184 110.683 73.7197H108.465C108.261 73.7197 108.066 73.6386 107.921 73.4944C107.777 73.3501 107.696 73.1544 107.696 72.9504V71.8291C105.343 71.4922 103.261 70.4765 101.984 68.6612C101.741 68.3188 101.596 67.9162 101.566 67.4973C101.536 67.0784 101.622 66.6593 101.814 66.2857C102.006 65.9122 102.297 65.5986 102.655 65.379C103.013 65.1595 103.424 65.0425 103.844 65.0409H104.03C104.437 65.0469 104.835 65.1568 105.187 65.3601C105.539 65.5634 105.833 65.8533 106.042 66.2024C106.695 67.2332 107.947 67.8467 109.662 67.8467C111.377 67.8467 112.413 67.188 112.413 66.1018C112.413 65.413 112.04 64.699 110.351 64.3822L107.103 63.6933C103.266 62.8636 101.461 61.1138 101.461 58.0214C101.461 54.582 103.925 52.2891 107.676 51.8064V50.7555C107.676 50.6151 107.704 50.4761 107.758 50.3464C107.811 50.2168 107.89 50.099 107.99 50C108.089 49.9009 108.208 49.8225 108.337 49.7692C108.467 49.7159 108.607 49.6889 108.747 49.6895H110.361C110.644 49.6895 110.915 49.8018 111.115 50.0017C111.315 50.2017 111.427 50.4728 111.427 50.7555V51.9171C113.167 52.2439 114.977 52.9931 116.174 54.5117C116.428 54.8488 116.583 55.2505 116.621 55.6711C116.659 56.0918 116.578 56.5147 116.388 56.8919C116.198 57.2692 115.907 57.5857 115.546 57.8058C115.186 58.0258 114.771 58.1406 114.348 58.137C113.934 58.1465 113.525 58.0475 113.16 57.85C112.796 57.6524 112.49 57.3631 112.272 57.0107C111.799 56.181 110.924 55.6732 109.451 55.6732C107.731 55.6732 106.615 56.3319 106.615 57.589C106.615 58.7103 107.419 59.198 108.963 59.5098L111.688 60.083C115.269 60.8272 117.562 62.2904 117.562 65.6443C117.562 68.9981 115.183 71.2307 111.427 71.8039" fill="#263D61"/>
</g>
<defs>
<clipPath id="clip0">
<rect width="200" height="73.7197" fill="white"/>
</clipPath>
</defs>
</svg>
