<svg width="27" height="27" viewBox="0 0 27 27" fill="none" xmlns="http://www.w3.org/2000/svg">
<path d="M10.9166 19.3125L18.6666 13.5L10.9166 7.6875V19.3125ZM13.4999 0.583328C6.36992 0.583328 0.583252 6.37 0.583252 13.5C0.583252 20.63 6.36992 26.4167 13.4999 26.4167C20.6299 26.4167 26.4166 20.63 26.4166 13.5C26.4166 6.37 20.6299 0.583328 13.4999 0.583328ZM13.4999 23.8333C7.80367 23.8333 3.16659 19.1962 3.16659 13.5C3.16659 7.80375 7.80367 3.16666 13.4999 3.16666C19.1962 3.16666 23.8333 7.80375 23.8333 13.5C23.8333 19.1962 19.1962 23.8333 13.4999 23.8333Z" fill="white"/>
</svg>
