<svg width="16" height="16" viewBox="0 0 16 16" fill="none" xmlns="http://www.w3.org/2000/svg">
<path d="M16.0006 1.89352C15.4057 2.21452 14.7714 2.42752 14.1105 2.53102C14.7903 2.03152 15.3097 1.24602 15.5534 0.299523C14.9195 0.764523 14.2192 1.09352 13.4734 1.27652C12.8715 0.487523 12.0133 -0.000976562 11.0775 -0.000976562C9.26128 -0.000976562 7.79954 1.81302 7.79954 4.03702C7.79954 4.35702 7.82169 4.66452 7.87544 4.95752C5.14846 4.79402 2.73534 3.18502 1.11441 0.734523C0.831335 1.33902 0.665592 2.03052 0.665592 2.77502C0.665592 4.17302 1.25062 5.41252 2.12241 6.13002C1.59523 6.11752 1.07831 5.92952 0.640566 5.63302C0.640566 5.64552 0.640566 5.66152 0.640566 5.67752C0.640566 7.63952 1.77739 9.26902 3.26867 9.64452C3.00159 9.73452 2.71072 9.77752 2.40877 9.77752C2.19872 9.77752 1.98662 9.76252 1.78764 9.70852C2.21267 11.3075 3.41882 12.4825 4.85267 12.521C3.73677 13.5955 2.31975 14.243 0.785797 14.243C0.516669 14.243 0.258618 14.228 0.000976562 14.1875C1.4541 15.3405 3.17595 15.999 5.03277 15.999C11.0689 15.999 14.3686 9.84502 14.3686 4.51102C14.3686 4.33252 14.3636 4.16002 14.3567 3.98902C15.0077 3.42052 15.5546 2.71002 16.0006 1.89302V1.89352Z" fill="#254064"/>
</svg>
