<svg width="16" height="16" viewBox="0 0 16 16" fill="none" xmlns="http://www.w3.org/2000/svg">
<path d="M8.14531 0C3.80735 0 0.290612 3.48898 0.290612 7.79429C0.290612 9.26694 0.702041 10.6433 1.41714 11.8188L0 16L4.34939 14.6188C5.47429 15.2359 6.76898 15.5886 8.14531 15.5886C12.4833 15.5886 16 12.098 16 7.79429C16 3.48898 12.4833 0 8.14531 0ZM12.0506 10.7543C11.8661 11.2131 11.0302 11.631 10.6612 11.649C10.2922 11.6686 10.2824 11.9347 8.27429 11.0629C6.26612 10.1894 5.05796 8.06857 4.96327 7.93143C4.86857 7.79592 4.18612 6.82286 4.22204 5.84327C4.25959 4.86367 4.7951 4.40163 4.98612 4.21061C5.17714 4.01796 5.39592 3.98367 5.5298 3.98204C5.68816 3.97878 5.79102 3.97714 5.90694 3.98204C6.02449 3.98694 6.19918 3.95755 6.35102 4.36245C6.50286 4.76735 6.86694 5.76 6.91265 5.86286C6.95837 5.96408 6.98776 6.08163 6.91592 6.21224C6.84408 6.34286 6.80653 6.42449 6.70367 6.53714C6.59918 6.6498 6.48326 6.78857 6.3902 6.8751C6.28571 6.9698 6.17633 7.07429 6.28735 7.27837C6.39673 7.48245 6.77551 8.14857 7.3502 8.69714C8.0898 9.40245 8.72816 9.63755 8.92571 9.74367C9.12327 9.85143 9.24082 9.83837 9.36163 9.71102C9.48245 9.58204 9.88408 9.14939 10.0261 8.9551C10.1682 8.76082 10.3004 8.79837 10.4816 8.87184C10.6629 8.94531 11.6294 9.46286 11.8269 9.57061C12.0245 9.67673 12.1551 9.73224 12.2024 9.81714C12.2498 9.89714 12.2351 10.2955 12.0506 10.7543Z" fill="#254064"/>
</svg>
