<svg width="16" height="16" viewBox="0 0 16 16" fill="none" xmlns="http://www.w3.org/2000/svg">
<path d="M11.5205 0C13.942 0 15.9115 1.97 15.9115 4.391V11.5205C15.9115 13.9415 13.9415 15.9115 11.5205 15.9115H4.391C1.97 15.9115 0 13.9415 0 11.5205V4.391C0 1.97 1.97 0 4.391 0H11.5205ZM14.5 11.5205V4.391C14.5 2.7485 13.1635 1.4115 11.5205 1.4115H4.391C2.7485 1.4115 1.412 2.748 1.412 4.391V11.5205C1.412 13.1635 2.7485 14.5 4.391 14.5H11.5205C13.1635 14.5 14.5 13.1635 14.5 11.5205ZM7.956 3.856C10.217 3.856 12.056 5.695 12.056 7.956C12.056 10.217 10.217 12.056 7.956 12.056C5.695 12.056 3.856 10.217 3.856 7.956C3.856 5.695 5.695 3.856 7.956 3.856ZM7.956 10.644C9.4385 10.644 10.6445 9.438 10.6445 7.956C10.6445 6.474 9.4385 5.2675 7.956 5.2675C6.4735 5.2675 5.2675 6.4735 5.2675 7.956C5.2675 9.4385 6.4735 10.644 7.956 10.644ZM12.228 2.659C12.501 2.659 12.768 2.769 12.96 2.962C13.153 3.154 13.263 3.4215 13.263 3.694C13.263 3.966 13.153 4.2335 12.96 4.426C12.767 4.618 12.5005 4.729 12.228 4.729C11.956 4.729 11.6885 4.618 11.4965 4.426C11.3035 4.233 11.1925 3.966 11.1925 3.694C11.1925 3.421 11.3035 3.154 11.4965 2.962C11.6885 2.769 11.956 2.659 12.228 2.659Z" fill="#254064"/>
</svg>
