<svg width="16" height="12" viewBox="0 0 16 12" fill="none" xmlns="http://www.w3.org/2000/svg">
<path d="M15.8267 2.4034C15.8267 2.4034 15.6733 1.3034 15.1933 0.823401C14.5867 0.183401 13.9067 0.183401 13.5933 0.143401C11.36 -0.0199325 8 6.75751e-05 8 6.75751e-05C8 6.75751e-05 4.65333 -0.0199324 2.42 0.140068C2.11333 0.180068 1.43333 0.180068 0.826667 0.820068C0.346667 1.30007 0.186667 2.40007 0.186667 2.40007C0.186667 2.40007 0.0266667 3.69673 0 4.98673V6.33673C0.0266667 7.63007 0.186667 8.92007 0.186667 8.92007C0.186667 8.92007 0.346667 10.0201 0.826667 10.5067C1.43333 11.1401 2.22667 11.1201 2.58667 11.1867C3.84 11.3067 7.86 11.3334 8 11.3334C8 11.3334 11.3667 11.3401 13.6 11.1801C13.9067 11.1401 14.5867 11.1401 15.1933 10.5001C15.6733 10.0201 15.8333 8.92007 15.8333 8.92007C15.8333 8.92007 15.9933 7.62673 16 6.33673V4.98673C15.9867 3.69673 15.8267 2.4034 15.8267 2.4034ZM6.38 8.00007V3.32673L10.6667 5.7534L6.38 8.00007Z" fill="#254064"/>
</svg>
