<svg width="18" height="10" viewBox="0 0 18 10" fill="none" xmlns="http://www.w3.org/2000/svg">
<path d="M12.975 0.725092C12.6825 0.432592 12.21 0.432592 11.9175 0.725092L7.68748 4.95509L8.74498 6.01259L12.975 1.77509C13.26 1.49009 13.26 1.01009 12.975 0.725092ZM16.155 0.717592L8.74498 8.12759L6.13498 5.52509C5.84248 5.23259 5.36998 5.23259 5.07748 5.52509C4.78498 5.81759 4.78498 6.29009 5.07748 6.58259L8.21248 9.71759C8.50498 10.0101 8.97748 10.0101 9.26998 9.71759L17.2125 1.78259C17.505 1.49009 17.505 1.01759 17.2125 0.725092H17.205C16.92 0.425092 16.4475 0.425092 16.155 0.717592ZM0.83998 6.59009L3.97498 9.72509C4.26748 10.0176 4.73998 10.0176 5.03248 9.72509L5.55748 9.20009L1.89748 5.52509C1.60498 5.23259 1.13248 5.23259 0.83998 5.52509C0.54748 5.81759 0.54748 6.29759 0.83998 6.59009Z" fill="#3AC7F5"/>
</svg>
